<?xml version="1.0" encoding="UTF-8" standalone="no"?>
<!-- Created with Inkscape (http://www.inkscape.org/) -->

<svg
   version="1.1"
   id="svg1"
   width="436.39053"
   height="118.24147"
   viewBox="0 0 436.39053 118.24147"
   xmlns="http://www.w3.org/2000/svg"
   xmlns:svg="http://www.w3.org/2000/svg">
  <defs
     id="defs1">
    <clipPath
       clipPathUnits="userSpaceOnUse"
       id="clipPath3">
      <path
         d="M 0,126 H 352 V 0 H 0 Z"
         transform="translate(-78.130899,-43.058604)"
         id="path3" />
    </clipPath>
    <clipPath
       clipPathUnits="userSpaceOnUse"
       id="clipPath5">
      <path
         d="M 0,126 H 352 V 0 H 0 Z"
         transform="translate(-56.457001,-86.409202)"
         id="path5" />
    </clipPath>
    <clipPath
       clipPathUnits="userSpaceOnUse"
       id="clipPath7">
      <path
         d="M 0,126 H 352 V 0 H 0 Z"
         transform="translate(-78.130899,-86.409202)"
         id="path7" />
    </clipPath>
    <clipPath
       clipPathUnits="userSpaceOnUse"
       id="clipPath9">
      <path
         d="M 0,126 H 352 V 0 H 0 Z"
         transform="translate(-34.781301,-64.747102)"
         id="path9" />
    </clipPath>
    <clipPath
       clipPathUnits="userSpaceOnUse"
       id="clipPath11">
      <path
         d="M 0,126 H 352 V 0 H 0 Z"
         transform="translate(-56.457001,-64.747102)"
         id="path11" />
    </clipPath>
    <clipPath
       clipPathUnits="userSpaceOnUse"
       id="clipPath13">
      <path
         d="M 0,126 H 352 V 0 H 0 Z"
         transform="translate(-34.781301,-43.058604)"
         id="path13" />
    </clipPath>
    <clipPath
       clipPathUnits="userSpaceOnUse"
       id="clipPath15">
      <path
         d="M 0,126 H 352 V 0 H 0 Z"
         transform="translate(-56.457001,-43.058604)"
         id="path15" />
    </clipPath>
    <clipPath
       clipPathUnits="userSpaceOnUse"
       id="clipPath17">
      <path
         d="M 0,126 H 352 V 0 H 0 Z"
         transform="translate(-34.781301,-21.359401)"
         id="path17" />
    </clipPath>
    <clipPath
       clipPathUnits="userSpaceOnUse"
       id="clipPath19">
      <path
         d="M 0,126 H 352 V 0 H 0 Z"
         transform="translate(-56.457001,-21.359401)"
         id="path19" />
    </clipPath>
    <clipPath
       clipPathUnits="userSpaceOnUse"
       id="clipPath21">
      <path
         d="M 0,126 H 352 V 0 H 0 Z"
         transform="translate(-35.682601,-93.682602)"
         id="path21" />
    </clipPath>
    <clipPath
       clipPathUnits="userSpaceOnUse"
       id="clipPath23">
      <path
         d="M 0,126 H 352 V 0 H 0 Z"
         id="path23" />
    </clipPath>
    <clipPath
       clipPathUnits="userSpaceOnUse"
       id="clipPath25">
      <path
         d="M 0,126 H 352 V 0 H 0 Z"
         transform="translate(-115.1211,-63.386702)"
         id="path25" />
    </clipPath>
    <clipPath
       clipPathUnits="userSpaceOnUse"
       id="clipPath27">
      <path
         d="M 0,126 H 352 V 0 H 0 Z"
         transform="translate(-130.3291,-68.377001)"
         id="path27" />
    </clipPath>
    <clipPath
       clipPathUnits="userSpaceOnUse"
       id="clipPath29">
      <path
         d="M 0,126 H 352 V 0 H 0 Z"
         transform="translate(-140.5938,-63.386702)"
         id="path29" />
    </clipPath>
    <clipPath
       clipPathUnits="userSpaceOnUse"
       id="clipPath31">
      <path
         d="M 0,126 H 352 V 0 H 0 Z"
         id="path31" />
    </clipPath>
    <clipPath
       clipPathUnits="userSpaceOnUse"
       id="clipPath33">
      <path
         d="M 0,126 H 352 V 0 H 0 Z"
         transform="translate(-163.5454,-63.386702)"
         id="path33" />
    </clipPath>
    <clipPath
       clipPathUnits="userSpaceOnUse"
       id="clipPath35">
      <path
         d="M 0,126 H 352 V 0 H 0 Z"
         transform="translate(-185.9248,-81.357402)"
         id="path35" />
    </clipPath>
    <clipPath
       clipPathUnits="userSpaceOnUse"
       id="clipPath37">
      <path
         d="M 0,126 H 352 V 0 H 0 Z"
         transform="translate(-197.33301,-63.386702)"
         id="path37" />
    </clipPath>
    <clipPath
       clipPathUnits="userSpaceOnUse"
       id="clipPath39">
      <path
         d="M 0,126 H 352 V 0 H 0 Z"
         transform="translate(-208.21441,-72.396502)"
         id="path39" />
    </clipPath>
    <clipPath
       clipPathUnits="userSpaceOnUse"
       id="clipPath41">
      <path
         d="M 0,126 H 352 V 0 H 0 Z"
         transform="translate(-235.49071,-63.386702)"
         id="path41" />
    </clipPath>
    <clipPath
       clipPathUnits="userSpaceOnUse"
       id="clipPath43">
      <path
         d="M 0,126 H 352 V 0 H 0 Z"
         transform="translate(-256.00681,-63.386702)"
         id="path43" />
    </clipPath>
    <clipPath
       clipPathUnits="userSpaceOnUse"
       id="clipPath45">
      <path
         d="M 0,126 H 352 V 0 H 0 Z"
         transform="translate(-270.73341,-72.446302)"
         id="path45" />
    </clipPath>
    <clipPath
       clipPathUnits="userSpaceOnUse"
       id="clipPath47">
      <path
         d="M 0,126 H 352 V 0 H 0 Z"
         transform="translate(-288.79641,-63.386702)"
         id="path47" />
    </clipPath>
    <clipPath
       clipPathUnits="userSpaceOnUse"
       id="clipPath49">
      <path
         d="M 0,126 H 352 V 0 H 0 Z"
         transform="translate(-296.36871,-73.379902)"
         id="path49" />
    </clipPath>
    <clipPath
       clipPathUnits="userSpaceOnUse"
       id="clipPath51">
      <path
         d="M 0,126 H 352 V 0 H 0 Z"
         transform="translate(-318.09131,-70.860402)"
         id="path51" />
    </clipPath>
    <clipPath
       clipPathUnits="userSpaceOnUse"
       id="clipPath53">
      <path
         d="M 0,126 H 352 V 0 H 0 Z"
         transform="translate(-326.73781,-63.386702)"
         id="path53" />
    </clipPath>
    <clipPath
       clipPathUnits="userSpaceOnUse"
       id="clipPath55">
      <path
         d="M 0,126 H 352 V 0 H 0 Z"
         transform="translate(-98.5225,-44.738304)"
         id="path55" />
    </clipPath>
    <clipPath
       clipPathUnits="userSpaceOnUse"
       id="clipPath57">
      <path
         d="M 0,126 H 352 V 0 H 0 Z"
         transform="translate(-103.854,-42.211899)"
         id="path57" />
    </clipPath>
    <clipPath
       clipPathUnits="userSpaceOnUse"
       id="clipPath59">
      <path
         d="M 0,126 H 352 V 0 H 0 Z"
         transform="translate(-112.70121,-46.223604)"
         id="path59" />
    </clipPath>
    <clipPath
       clipPathUnits="userSpaceOnUse"
       id="clipPath61">
      <path
         d="M 0,126 H 352 V 0 H 0 Z"
         transform="translate(-129.9414,-47.821299)"
         id="path61" />
    </clipPath>
    <clipPath
       clipPathUnits="userSpaceOnUse"
       id="clipPath63">
      <path
         d="M 0,126 H 352 V 0 H 0 Z"
         transform="translate(-142.3809,-42.211899)"
         id="path63" />
    </clipPath>
    <clipPath
       clipPathUnits="userSpaceOnUse"
       id="clipPath65">
      <path
         d="M 0,126 H 352 V 0 H 0 Z"
         transform="translate(-151.64751,-51.304702)"
         id="path65" />
    </clipPath>
    <clipPath
       clipPathUnits="userSpaceOnUse"
       id="clipPath67">
      <path
         d="M 0,126 H 352 V 0 H 0 Z"
         id="path67" />
    </clipPath>
    <clipPath
       clipPathUnits="userSpaceOnUse"
       id="clipPath69">
      <path
         d="M 0,126 H 352 V 0 H 0 Z"
         transform="translate(-167.7427,-46.223604)"
         id="path69" />
    </clipPath>
    <clipPath
       clipPathUnits="userSpaceOnUse"
       id="clipPath71">
      <path
         d="M 0,126 H 352 V 0 H 0 Z"
         transform="translate(-96.671402,-31.870103)"
         id="path71" />
    </clipPath>
    <clipPath
       clipPathUnits="userSpaceOnUse"
       id="clipPath73">
      <path
         d="M 0,126 H 352 V 0 H 0 Z"
         transform="translate(-104.9595,-20.594701)"
         id="path73" />
    </clipPath>
    <clipPath
       clipPathUnits="userSpaceOnUse"
       id="clipPath75">
      <path
         d="M 0,126 H 352 V 0 H 0 Z"
         transform="translate(-125.3154,-19.5078)"
         id="path75" />
    </clipPath>
    <clipPath
       clipPathUnits="userSpaceOnUse"
       id="clipPath77">
      <path
         d="M 0,126 H 352 V 0 H 0 Z"
         transform="translate(-134.106,-28.563503)"
         id="path77" />
    </clipPath>
    <clipPath
       clipPathUnits="userSpaceOnUse"
       id="clipPath79">
      <path
         d="M 0,126 H 352 V 0 H 0 Z"
         transform="translate(-142.2549,-29.687498)"
         id="path79" />
    </clipPath>
    <clipPath
       clipPathUnits="userSpaceOnUse"
       id="clipPath81">
      <path
         d="M 0,126 H 352 V 0 H 0 Z"
         transform="translate(-158.6191,-22.285201)"
         id="path81" />
    </clipPath>
    <clipPath
       clipPathUnits="userSpaceOnUse"
       id="clipPath83">
      <path
         d="M 0,126 H 352 V 0 H 0 Z"
         transform="translate(-173.07471,-23.121098)"
         id="path83" />
    </clipPath>
    <clipPath
       clipPathUnits="userSpaceOnUse"
       id="clipPath85">
      <path
         d="M 0,126 H 352 V 0 H 0 Z"
         transform="translate(-177.94821,-20.594701)"
         id="path85" />
    </clipPath>
    <clipPath
       clipPathUnits="userSpaceOnUse"
       id="clipPath87">
      <path
         d="M 0,126 H 352 V 0 H 0 Z"
         transform="translate(-186.3394,-24.606398)"
         id="path87" />
    </clipPath>
    <clipPath
       clipPathUnits="userSpaceOnUse"
       id="clipPath89">
      <path
         d="M 0,126 H 352 V 0 H 0 Z"
         transform="translate(-199.1011,-15.931598)"
         id="path89" />
    </clipPath>
    <clipPath
       clipPathUnits="userSpaceOnUse"
       id="clipPath91">
      <path
         d="M 0,126 H 352 V 0 H 0 Z"
         transform="translate(-206.51511,-24.606398)"
         id="path91" />
    </clipPath>
    <clipPath
       clipPathUnits="userSpaceOnUse"
       id="clipPath93">
      <path
         d="M 0,126 H 352 V 0 H 0 Z"
         transform="translate(-223.11181,-22.285201)"
         id="path93" />
    </clipPath>
    <clipPath
       clipPathUnits="userSpaceOnUse"
       id="clipPath95">
      <path
         d="M 0,126 H 352 V 0 H 0 Z"
         transform="translate(-227.91111,-31.266601)"
         id="path95" />
    </clipPath>
    <clipPath
       clipPathUnits="userSpaceOnUse"
       id="clipPath97">
      <path
         d="M 0,126 H 352 V 0 H 0 Z"
         transform="translate(-243.74371,-20.613301)"
         id="path97" />
    </clipPath>
    <clipPath
       clipPathUnits="userSpaceOnUse"
       id="clipPath99">
      <path
         d="M 0,126 H 352 V 0 H 0 Z"
         transform="translate(-252.14361,-24.606398)"
         id="path99" />
    </clipPath>
    <clipPath
       clipPathUnits="userSpaceOnUse"
       id="clipPath101">
      <path
         d="M 0,126 H 352 V 0 H 0 Z"
         transform="translate(-268.74021,-22.285201)"
         id="path101" />
    </clipPath>
    <clipPath
       clipPathUnits="userSpaceOnUse"
       id="clipPath103">
      <path
         d="M 0,126 H 352 V 0 H 0 Z"
         transform="translate(-281.34421,-31.870103)"
         id="path103" />
    </clipPath>
    <clipPath
       clipPathUnits="userSpaceOnUse"
       id="clipPath105">
      <path
         d="M 0,126 H 352 V 0 H 0 Z"
         transform="translate(-289.63231,-20.594701)"
         id="path105" />
    </clipPath>
    <clipPath
       clipPathUnits="userSpaceOnUse"
       id="clipPath107">
      <path
         d="M 0,126 H 352 V 0 H 0 Z"
         transform="translate(-309.98781,-19.5078)"
         id="path107" />
    </clipPath>
    <clipPath
       clipPathUnits="userSpaceOnUse"
       id="clipPath109">
      <path
         d="M 0,126 H 352 V 0 H 0 Z"
         transform="translate(-318.77881,-28.563503)"
         id="path109" />
    </clipPath>
    <clipPath
       clipPathUnits="userSpaceOnUse"
       id="clipPath111">
      <path
         d="M 0,126 H 352 V 0 H 0 Z"
         transform="translate(-326.50881,-24.606398)"
         id="path111" />
    </clipPath>
    <clipPath
       clipPathUnits="userSpaceOnUse"
       id="clipPath113">
      <path
         d="M 0,126 H 352 V 0 H 0 Z"
         transform="translate(-343.10551,-22.285201)"
         id="path113" />
    </clipPath>
  </defs>
  <g
     id="layer-MC0"
     transform="translate(-21.083484,-29.840534)">
    <path
       id="path2"
       d="m 0,0 c 0,-0.973 -0.788,-1.76 -1.76,-1.76 h -14.542 c -0.973,0 -1.761,0.787 -1.761,1.76 v 14.546 c 0,0.971 0.788,1.759 1.761,1.759 H -1.76 c 0.972,0 1.76,-0.788 1.76,-1.759 z"
       style="fill:#37a033;fill-opacity:1;fill-rule:nonzero;stroke:none"
       transform="matrix(1.3333333,0,0,-1.3333333,104.17453,110.58853)"
       clip-path="url(#clipPath3)" />
    <path
       id="path4"
       d="m 0,0 c 0,-0.972 -0.79,-1.759 -1.762,-1.759 h -14.543 c -0.972,0 -1.759,0.787 -1.759,1.759 v 14.546 c 0,0.972 0.787,1.76 1.759,1.76 H -1.762 C -0.79,16.306 0,15.518 0,14.546 Z"
       style="fill:#37a033;fill-opacity:1;fill-rule:nonzero;stroke:none"
       transform="matrix(1.3333333,0,0,-1.3333333,75.276,52.787733)"
       clip-path="url(#clipPath5)" />
    <path
       id="path6"
       d="m 0,0 c 0,-0.972 -0.788,-1.759 -1.76,-1.759 h -14.542 c -0.973,0 -1.761,0.787 -1.761,1.759 v 14.546 c 0,0.972 0.788,1.76 1.761,1.76 H -1.76 c 0.972,0 1.76,-0.788 1.76,-1.76 z"
       style="fill:#37a033;fill-opacity:1;fill-rule:nonzero;stroke:none"
       transform="matrix(1.3333333,0,0,-1.3333333,104.17453,52.787733)"
       clip-path="url(#clipPath7)" />
    <path
       id="path8"
       d="m 0,0 c 0,-0.97 -0.79,-1.758 -1.76,-1.758 h -14.545 c -0.972,0 -1.759,0.788 -1.759,1.758 v 14.546 c 0,0.973 0.787,1.76 1.759,1.76 H -1.76 c 0.97,0 1.76,-0.787 1.76,-1.76 z"
       style="fill:#37a033;fill-opacity:1;fill-rule:nonzero;stroke:none"
       transform="matrix(1.3333333,0,0,-1.3333333,46.375067,81.670533)"
       clip-path="url(#clipPath9)" />
    <path
       id="path10"
       d="m 0,0 c 0,-0.97 -0.79,-1.758 -1.762,-1.758 h -14.543 c -0.972,0 -1.759,0.788 -1.759,1.758 v 14.546 c 0,0.973 0.787,1.76 1.759,1.76 H -1.762 C -0.79,16.306 0,15.519 0,14.546 Z"
       style="fill:#37a033;fill-opacity:1;fill-rule:nonzero;stroke:none"
       transform="matrix(1.3333333,0,0,-1.3333333,75.276,81.670533)"
       clip-path="url(#clipPath11)" />
    <path
       id="path12"
       d="m 0,0 c 0,-0.973 -0.79,-1.76 -1.76,-1.76 h -14.545 c -0.972,0 -1.759,0.787 -1.759,1.76 v 14.546 c 0,0.971 0.787,1.759 1.759,1.759 H -1.76 c 0.97,0 1.76,-0.788 1.76,-1.759 z"
       style="fill:#37a033;fill-opacity:1;fill-rule:nonzero;stroke:none"
       transform="matrix(1.3333333,0,0,-1.3333333,46.375067,110.58853)"
       clip-path="url(#clipPath13)" />
    <path
       id="path14"
       d="m 0,0 c 0,-0.973 -0.79,-1.76 -1.762,-1.76 h -14.543 c -0.972,0 -1.759,0.787 -1.759,1.76 v 14.546 c 0,0.971 0.787,1.759 1.759,1.759 H -1.762 C -0.79,16.305 0,15.517 0,14.546 Z"
       style="fill:#37a033;fill-opacity:1;fill-rule:nonzero;stroke:none"
       transform="matrix(1.3333333,0,0,-1.3333333,75.276,110.58853)"
       clip-path="url(#clipPath15)" />
    <path
       id="path16"
       d="m 0,0 c 0,-0.969 -0.79,-1.76 -1.76,-1.76 h -14.545 c -0.972,0 -1.759,0.791 -1.759,1.76 v 14.55 c 0,0.968 0.787,1.756 1.759,1.756 H -1.76 C -0.79,16.306 0,15.518 0,14.55 Z"
       style="fill:#37a033;fill-opacity:1;fill-rule:nonzero;stroke:none"
       transform="matrix(1.3333333,0,0,-1.3333333,46.375067,139.5208)"
       clip-path="url(#clipPath17)" />
    <path
       id="path18"
       d="m 0,0 c 0,-0.969 -0.79,-1.76 -1.762,-1.76 h -14.543 c -0.972,0 -1.759,0.791 -1.759,1.76 v 14.55 c 0,0.968 0.787,1.756 1.759,1.756 H -1.762 C -0.79,16.306 0,15.518 0,14.55 Z"
       style="fill:#37a033;fill-opacity:1;fill-rule:nonzero;stroke:none"
       transform="matrix(1.3333333,0,0,-1.3333333,75.276,139.5208)"
       clip-path="url(#clipPath19)" />
    <path
       id="path20"
       d="m 0,0 c 0,-5.487 -4.446,-9.934 -9.936,-9.934 -5.487,0 -9.934,4.447 -9.934,9.934 0,5.487 4.447,9.937 9.934,9.937 C -4.446,9.937 0,5.487 0,0"
       style="fill:#cf181f;fill-opacity:1;fill-rule:nonzero;stroke:none"
       transform="matrix(1.3333333,0,0,-1.3333333,47.5768,43.089867)"
       clip-path="url(#clipPath21)" />
    <path
       id="path22"
       d="m 90.779,81.357 h 3.817 V 63.386 h -3.817 z"
       style="fill:#ffffff;fill-opacity:1;fill-rule:nonzero;stroke:none"
       transform="matrix(1.3333333,0,0,-1.3333333,0,168)"
       clip-path="url(#clipPath23)" />
    <path
       id="path24"
       d="m 0,0 h -4.852 l -7.831,13.595 h -0.11 c 0.155,-2.402 0.233,-4.113 0.233,-5.138 V 0 h -3.41 v 17.971 h 4.814 l 7.819,-13.46 h 0.086 c -0.123,2.336 -0.185,3.987 -0.185,4.954 v 8.506 H 0 Z"
       style="fill:#ffffff;fill-opacity:1;fill-rule:nonzero;stroke:none"
       transform="matrix(1.3333333,0,0,-1.3333333,153.4948,83.4844)"
       clip-path="url(#clipPath25)" />
    <path
       id="path26"
       d="m 0,0 c 0,-1.622 -0.585,-2.9 -1.755,-3.835 -1.17,-0.934 -2.797,-1.401 -4.882,-1.401 -1.921,0 -3.62,0.36 -5.098,1.082 v 3.54 c 1.215,-0.541 2.243,-0.922 3.085,-1.144 0.841,-0.221 1.61,-0.331 2.309,-0.331 0.837,0 1.479,0.159 1.926,0.479 0.448,0.32 0.671,0.795 0.671,1.425 0,0.353 -0.098,0.666 -0.295,0.941 -0.197,0.274 -0.486,0.539 -0.868,0.793 -0.382,0.254 -1.159,0.66 -2.333,1.217 -1.1,0.516 -1.925,1.012 -2.475,1.487 -0.55,0.476 -0.99,1.028 -1.318,1.66 -0.328,0.631 -0.492,1.368 -0.492,2.212 0,1.59 0.539,2.84 1.619,3.749 1.079,0.91 2.571,1.364 4.476,1.364 0.935,0 1.828,-0.11 2.678,-0.332 0.849,-0.22 1.738,-0.532 2.666,-0.933 L -1.318,9.01 c -0.96,0.393 -1.754,0.668 -2.382,0.824 -0.628,0.155 -1.246,0.233 -1.853,0.233 -0.723,0 -1.277,-0.168 -1.663,-0.504 -0.386,-0.335 -0.578,-0.774 -0.578,-1.315 0,-0.336 0.078,-0.629 0.233,-0.879 0.156,-0.25 0.405,-0.491 0.746,-0.725 C -6.475,6.41 -5.669,5.99 -4.396,5.384 -2.713,4.581 -1.56,3.775 -0.936,2.969 -0.312,2.161 0,1.172 0,0"
       style="fill:#ffffff;fill-opacity:1;fill-rule:nonzero;stroke:none"
       transform="matrix(1.3333333,0,0,-1.3333333,173.77213,76.830667)"
       clip-path="url(#clipPath27)" />
    <path
       id="path28"
       d="m 0,0 h -3.817 v 14.8 h -4.889 v 3.171 H 4.888 V 14.8 H 0 Z"
       style="fill:#ffffff;fill-opacity:1;fill-rule:nonzero;stroke:none"
       transform="matrix(1.3333333,0,0,-1.3333333,187.4584,83.4844)"
       clip-path="url(#clipPath29)" />
    <path
       id="path30"
       d="m 148.252,81.357 h 3.817 V 63.386 h -3.817 z"
       style="fill:#ffffff;fill-opacity:1;fill-rule:nonzero;stroke:none"
       transform="matrix(1.3333333,0,0,-1.3333333,0,168)"
       clip-path="url(#clipPath31)" />
    <path
       id="path32"
       d="m 0,0 h -3.817 v 14.8 h -4.889 v 3.171 H 4.888 V 14.8 H 0 Z"
       style="fill:#ffffff;fill-opacity:1;fill-rule:nonzero;stroke:none"
       transform="matrix(1.3333333,0,0,-1.3333333,218.06053,83.4844)"
       clip-path="url(#clipPath33)" />
    <path
       id="path34"
       d="m 0,0 v -11.628 c 0,-1.328 -0.298,-2.491 -0.893,-3.491 -0.595,-1 -1.455,-1.766 -2.58,-2.299 -1.124,-0.532 -2.454,-0.799 -3.989,-0.799 -2.315,0 -4.113,0.592 -5.393,1.777 -1.281,1.184 -1.921,2.804 -1.921,4.861 V 0 h 3.805 v -11.001 c 0,-1.385 0.279,-2.401 0.837,-3.049 0.558,-0.647 1.482,-0.971 2.771,-0.971 1.247,0 2.152,0.326 2.715,0.978 0.562,0.651 0.843,1.673 0.843,3.066 V 0 Z"
       style="fill:#ffffff;fill-opacity:1;fill-rule:nonzero;stroke:none"
       transform="matrix(1.3333333,0,0,-1.3333333,247.89973,59.523467)"
       clip-path="url(#clipPath35)" />
    <path
       id="path36"
       d="m 0,0 h -3.817 v 14.8 h -4.889 v 3.171 H 4.888 V 14.8 H 0 Z"
       style="fill:#ffffff;fill-opacity:1;fill-rule:nonzero;stroke:none"
       transform="matrix(1.3333333,0,0,-1.3333333,263.11067,83.4844)"
       clip-path="url(#clipPath37)" />
    <path
       id="path38"
       d="M 0,0 C 0,-2.008 0.382,-3.52 1.145,-4.535 1.909,-5.552 3.05,-6.06 4.568,-6.06 c 3.046,0 4.569,2.02 4.569,6.06 0,4.048 -1.515,6.072 -4.544,6.072 -1.519,0 -2.664,-0.51 -3.435,-1.53 C 0.386,3.521 0,2.008 0,0 m 13.138,0 c 0,-2.975 -0.739,-5.261 -2.216,-6.858 -1.478,-1.599 -3.595,-2.398 -6.354,-2.398 -2.758,0 -4.876,0.799 -6.353,2.398 -1.478,1.597 -2.217,3.891 -2.217,6.882 0,2.992 0.741,5.276 2.223,6.854 1.482,1.577 3.606,2.366 6.372,2.366 2.766,0 4.882,-0.795 6.347,-2.385 C 12.406,5.27 13.138,2.982 13.138,0"
       style="fill:#ffffff;fill-opacity:1;fill-rule:nonzero;stroke:none"
       transform="matrix(1.3333333,0,0,-1.3333333,277.6192,71.471333)"
       clip-path="url(#clipPath39)" />
    <path
       id="path40"
       d="M 0,0 H -3.755 V 17.971 H 6.563 V 14.849 H 0 V 10.215 H 6.107 V 7.105 H 0 Z"
       style="fill:#ffffff;fill-opacity:1;fill-rule:nonzero;stroke:none"
       transform="matrix(1.3333333,0,0,-1.3333333,313.9876,83.4844)"
       clip-path="url(#clipPath41)" />
    <path
       id="path42"
       d="M 0,0 H -10.368 V 17.971 H 0 v -3.122 h -6.551 v -3.946 h 6.095 V 7.78 H -6.551 V 3.146 H 0 Z"
       style="fill:#ffffff;fill-opacity:1;fill-rule:nonzero;stroke:none"
       transform="matrix(1.3333333,0,0,-1.3333333,341.3424,83.4844)"
       clip-path="url(#clipPath43)" />
    <path
       id="path44"
       d="M 0,0 C 0,3.859 -1.708,5.789 -5.123,5.789 H -7.154 V -5.913 h 1.637 C -1.839,-5.913 0,-3.942 0,0 M 3.965,0.098 C 3.965,-2.86 3.121,-5.126 1.434,-6.699 -0.252,-8.273 -2.689,-9.06 -5.874,-9.06 h -5.097 V 8.911 h 5.652 c 2.938,0 5.22,-0.774 6.846,-2.323 1.625,-1.549 2.438,-3.712 2.438,-6.49"
       style="fill:#ffffff;fill-opacity:1;fill-rule:nonzero;stroke:none"
       transform="matrix(1.3333333,0,0,-1.3333333,360.97787,71.404933)"
       clip-path="url(#clipPath45)" />
    <path
       id="path46"
       d="M 0,0 H -10.368 V 17.971 H 0 v -3.122 h -6.551 v -3.946 h 6.095 V 7.78 H -6.551 V 3.146 H 0 Z"
       style="fill:#ffffff;fill-opacity:1;fill-rule:nonzero;stroke:none"
       transform="matrix(1.3333333,0,0,-1.3333333,385.06187,83.4844)"
       clip-path="url(#clipPath47)" />
    <path
       id="path48"
       d="m 0,0 h 1.231 c 1.207,0 2.098,0.201 2.672,0.603 0.575,0.401 0.862,1.032 0.862,1.892 0,0.853 -0.293,1.459 -0.88,1.819 C 3.298,4.675 2.389,4.855 1.158,4.855 H 0 Z M 0,-3.098 V -9.993 H -3.817 V 7.978 H 1.429 C 3.875,7.978 5.685,7.533 6.858,6.644 8.032,5.755 8.619,4.404 8.619,2.594 8.619,1.536 8.328,0.597 7.745,-0.228 7.162,-1.051 6.337,-1.696 5.27,-2.163 c 2.709,-4.04 4.474,-6.65 5.295,-7.83 H 6.329 l -4.297,6.895 z"
       style="fill:#ffffff;fill-opacity:1;fill-rule:nonzero;stroke:none"
       transform="matrix(1.3333333,0,0,-1.3333333,395.15827,70.160133)"
       clip-path="url(#clipPath49)" />
    <path
       id="path50"
       d="M 0,0 C -1.206,3.876 -1.886,6.067 -2.038,6.576 -2.189,7.084 -2.298,7.485 -2.364,7.78 -2.635,6.731 -3.411,4.138 -4.691,0 Z m 2.216,-7.474 -1.305,4.278 h -6.562 l -1.305,-4.278 h -4.113 l 6.353,18.045 h 4.667 L 6.329,-7.474 Z"
       style="fill:#ffffff;fill-opacity:1;fill-rule:nonzero;stroke:none"
       transform="matrix(1.3333333,0,0,-1.3333333,424.12173,73.519467)"
       clip-path="url(#clipPath51)" />
    <path
       id="path52"
       d="M 0,0 V 17.971 H 3.817 V 3.146 h 7.302 V 0 Z"
       style="fill:#ffffff;fill-opacity:1;fill-rule:nonzero;stroke:none"
       transform="matrix(1.3333333,0,0,-1.3333333,435.6504,83.4844)"
       clip-path="url(#clipPath53)" />
    <path
       id="path54"
       d="m 0,0 c 0,-1.195 -0.434,-2.127 -1.302,-2.796 -0.869,-0.669 -2.047,-1.003 -3.536,-1.003 -1.613,0 -2.853,0.207 -3.721,0.622 v 1.524 c 0.558,-0.236 1.166,-0.422 1.823,-0.558 0.658,-0.136 1.309,-0.204 1.954,-0.204 1.054,0 1.848,0.199 2.382,0.599 0.533,0.399 0.8,0.955 0.8,1.667 0,0.47 -0.095,0.856 -0.284,1.156 -0.189,0.301 -0.506,0.578 -0.949,0.832 -0.443,0.254 -1.118,0.541 -2.024,0.863 -1.265,0.452 -2.169,0.987 -2.711,1.607 -0.543,0.619 -0.814,1.427 -0.814,2.424 0,1.046 0.393,1.879 1.181,2.498 0.788,0.62 1.83,0.929 3.126,0.929 1.352,0 2.596,-0.248 3.731,-0.743 L -0.837,8.043 C -1.96,8.514 -3.051,8.749 -4.112,8.749 -4.949,8.749 -5.604,8.569 -6.075,8.21 -6.546,7.851 -6.782,7.353 -6.782,6.715 -6.782,6.244 -6.695,5.858 -6.521,5.559 -6.348,5.258 -6.055,4.982 -5.643,4.731 -5.23,4.48 -4.599,4.204 -3.749,3.9 -2.323,3.393 -1.341,2.848 -0.805,2.266 -0.268,1.684 0,0.929 0,0"
       style="fill:#ffffff;fill-opacity:1;fill-rule:nonzero;stroke:none"
       transform="matrix(1.3333333,0,0,-1.3333333,131.36333,108.34893)"
       clip-path="url(#clipPath55)" />
    <path
       id="path56"
       d="M 0,0 C 0.961,0 1.716,0.263 2.265,0.789 2.814,1.315 3.089,2.053 3.089,3 V 3.919 L 1.544,3.855 C 0.316,3.811 -0.569,3.62 -1.112,3.283 -1.655,2.945 -1.926,2.421 -1.926,1.709 -1.926,1.151 -1.757,0.728 -1.419,0.437 -1.081,0.146 -0.608,0 0,0 m 2.289,10.458 c -0.267,0 -0.528,0.057 -0.782,0.172 -0.255,0.114 -0.504,0.241 -0.749,0.38 -0.245,0.139 -0.481,0.266 -0.707,0.381 -0.226,0.115 -0.445,0.172 -0.656,0.172 -0.31,0 -0.544,-0.093 -0.702,-0.279 -0.158,-0.185 -0.281,-0.468 -0.368,-0.845 h -0.911 c 0.08,0.75 0.298,1.335 0.655,1.76 0.357,0.424 0.817,0.636 1.382,0.636 0.285,0 0.561,-0.057 0.828,-0.172 C 0.545,12.549 0.8,12.422 1.042,12.282 1.284,12.144 1.516,12.017 1.74,11.901 1.963,11.787 2.174,11.73 2.372,11.73 c 0.304,0 0.53,0.091 0.679,0.274 0.149,0.183 0.27,0.466 0.363,0.85 H 4.335 C 4.255,12.105 4.039,11.518 3.689,11.094 3.338,10.67 2.872,10.458 2.289,10.458 M 3.489,-1.087 3.182,0.362 H 3.107 C 2.599,-0.275 2.092,-0.708 1.586,-0.934 1.081,-1.159 0.449,-1.272 -0.307,-1.272 c -1.011,0 -1.804,0.259 -2.377,0.78 -0.574,0.519 -0.861,1.26 -0.861,2.22 0,2.055 1.647,3.132 4.94,3.231 l 1.731,0.056 v 0.631 c 0,0.799 -0.172,1.389 -0.517,1.77 -0.344,0.381 -0.894,0.571 -1.651,0.571 -0.85,0 -1.811,-0.259 -2.884,-0.78 L -2.4,8.387 c 0.502,0.272 1.052,0.485 1.651,0.64 0.599,0.155 1.198,0.233 1.8,0.233 1.216,0 2.117,-0.27 2.703,-0.809 C 4.34,7.913 4.633,7.049 4.633,5.86 v -6.947 z"
       style="fill:#ffffff;fill-opacity:1;fill-rule:nonzero;stroke:none"
       transform="matrix(1.3333333,0,0,-1.3333333,138.472,111.71747)"
       clip-path="url(#clipPath57)" />
    <path
       id="path58"
       d="m 0,0 c 0,-1.3 0.261,-2.291 0.782,-2.972 0.521,-0.681 1.287,-1.021 2.298,-1.021 1.011,0 1.778,0.339 2.302,1.016 0.525,0.678 0.786,1.67 0.786,2.977 0,1.294 -0.261,2.277 -0.786,2.949 C 4.858,3.621 4.084,3.957 3.061,3.957 2.05,3.957 1.287,3.626 0.772,2.963 0.257,2.301 0,1.312 0,0 m 7.769,0 c 0,-1.659 -0.419,-2.955 -1.256,-3.887 -0.838,-0.931 -1.995,-1.397 -3.471,-1.397 -0.911,0 -1.721,0.214 -2.428,0.641 -0.707,0.427 -1.253,1.039 -1.637,1.838 C -1.408,-2.006 -1.6,-1.071 -1.6,0 c 0,1.659 0.415,2.952 1.246,3.878 0.832,0.926 1.985,1.389 3.462,1.389 1.426,0 2.559,-0.474 3.4,-1.421 C 7.349,2.898 7.769,1.616 7.769,0"
       style="fill:#ffffff;fill-opacity:1;fill-rule:nonzero;stroke:none"
       transform="matrix(1.3333333,0,0,-1.3333333,150.26827,106.36853)"
       clip-path="url(#clipPath59)" />
    <path
       id="path60"
       d="m 0,0 h 1.423 c 1.402,0 2.416,0.226 3.043,0.678 0.626,0.452 0.939,1.176 0.939,2.174 0,0.897 -0.294,1.566 -0.884,2.005 -0.589,0.44 -1.506,0.66 -2.753,0.66 L 0,5.517 Z M 7.043,2.926 C 7.043,1.551 6.573,0.494 5.633,-0.246 4.694,-0.986 3.349,-1.355 1.6,-1.355 H 0 V -6.696 H -1.581 V 6.882 h 3.525 c 3.399,0 5.099,-1.319 5.099,-3.956"
       style="fill:#ffffff;fill-opacity:1;fill-rule:nonzero;stroke:none"
       transform="matrix(1.3333333,0,0,-1.3333333,173.2552,104.23827)"
       clip-path="url(#clipPath61)" />
    <path
       id="path62"
       d="M 0,0 C 0.961,0 1.716,0.263 2.265,0.789 2.814,1.315 3.089,2.053 3.089,3 V 3.919 L 1.544,3.855 C 0.316,3.811 -0.569,3.62 -1.112,3.283 -1.655,2.945 -1.926,2.421 -1.926,1.709 -1.926,1.151 -1.757,0.728 -1.419,0.437 -1.081,0.146 -0.608,0 0,0 M 3.489,-1.087 3.182,0.362 H 3.107 C 2.599,-0.275 2.092,-0.708 1.586,-0.934 1.081,-1.159 0.449,-1.272 -0.307,-1.272 c -1.011,0 -1.804,0.259 -2.377,0.78 -0.574,0.519 -0.861,1.26 -0.861,2.22 0,2.055 1.647,3.132 4.941,3.231 l 1.73,0.056 v 0.631 c 0,0.799 -0.172,1.389 -0.517,1.77 -0.344,0.381 -0.894,0.571 -1.651,0.571 -0.85,0 -1.811,-0.259 -2.884,-0.78 L -2.4,8.387 c 0.502,0.272 1.052,0.485 1.651,0.64 0.599,0.155 1.198,0.233 1.8,0.233 1.216,0 2.117,-0.27 2.703,-0.809 C 4.34,7.913 4.633,7.049 4.633,5.86 v -6.947 z"
       style="fill:#ffffff;fill-opacity:1;fill-rule:nonzero;stroke:none"
       transform="matrix(1.3333333,0,0,-1.3333333,189.8412,111.71747)"
       clip-path="url(#clipPath63)" />
    <path
       id="path64"
       d="m 0,0 v -6.604 c 0,-0.83 0.189,-1.449 0.567,-1.858 0.379,-0.408 0.971,-0.612 1.778,-0.612 1.066,0 1.846,0.291 2.34,0.873 0.492,0.582 0.739,1.532 0.739,2.85 V 0 H 6.968 V -10.18 H 5.694 L 5.471,-8.814 H 5.387 C 5.07,-9.316 4.632,-9.7 4.07,-9.966 c -0.561,-0.266 -1.201,-0.399 -1.921,-0.399 -1.24,0 -2.169,0.294 -2.786,0.882 -0.617,0.588 -0.926,1.529 -0.926,2.823 V 0 Z"
       style="fill:#ffffff;fill-opacity:1;fill-rule:nonzero;stroke:none"
       transform="matrix(1.3333333,0,0,-1.3333333,202.19667,99.593733)"
       clip-path="url(#clipPath65)" />
    <path
       id="path66"
       d="m 163.435,41.125 h -1.544 v 14.451 h 1.544 z"
       style="fill:#ffffff;fill-opacity:1;fill-rule:nonzero;stroke:none"
       transform="matrix(1.3333333,0,0,-1.3333333,0,168)"
       clip-path="url(#clipPath67)" />
    <path
       id="path68"
       d="m 0,0 c 0,-1.3 0.261,-2.291 0.782,-2.972 0.521,-0.681 1.287,-1.021 2.298,-1.021 1.011,0 1.778,0.339 2.302,1.016 0.525,0.678 0.786,1.67 0.786,2.977 0,1.294 -0.261,2.277 -0.786,2.949 C 4.858,3.621 4.084,3.957 3.061,3.957 2.05,3.957 1.287,3.626 0.772,2.963 0.257,2.301 0,1.312 0,0 m 7.769,0 c 0,-1.659 -0.419,-2.955 -1.256,-3.887 -0.838,-0.931 -1.994,-1.397 -3.47,-1.397 -0.912,0 -1.722,0.214 -2.429,0.641 -0.707,0.427 -1.253,1.039 -1.637,1.838 C -1.408,-2.006 -1.6,-1.071 -1.6,0 c 0,1.659 0.415,2.952 1.246,3.878 0.832,0.926 1.985,1.389 3.462,1.389 1.426,0 2.56,-0.474 3.4,-1.421 C 7.349,2.898 7.769,1.616 7.769,0"
       style="fill:#ffffff;fill-opacity:1;fill-rule:nonzero;stroke:none"
       transform="matrix(1.3333333,0,0,-1.3333333,223.65693,106.36853)"
       clip-path="url(#clipPath69)" />
    <path
       id="path70"
       d="m 0,0 c -1.495,0 -2.675,-0.497 -3.54,-1.491 -0.865,-0.993 -1.298,-2.355 -1.298,-4.082 0,-1.777 0.417,-3.15 1.252,-4.119 0.833,-0.969 2.023,-1.454 3.567,-1.454 0.95,0 2.032,0.17 3.248,0.511 v -1.383 c -0.943,-0.354 -2.107,-0.53 -3.489,-0.53 -2.004,0 -3.55,0.607 -4.638,1.82 -1.089,1.214 -1.633,2.938 -1.633,5.173 0,1.4 0.261,2.626 0.786,3.679 0.524,1.053 1.281,1.863 2.27,2.434 0.989,0.569 2.154,0.854 3.493,0.854 1.427,0 2.674,-0.261 3.741,-0.78 L 3.089,-0.725 C 2.059,-0.241 1.03,0 0,0"
       style="fill:#ffffff;fill-opacity:1;fill-rule:nonzero;stroke:none"
       transform="matrix(1.3333333,0,0,-1.3333333,128.8952,125.50653)"
       clip-path="url(#clipPath71)" />
    <path
       id="path72"
       d="M 0,0 C 0.961,0 1.716,0.263 2.266,0.789 2.814,1.316 3.089,2.053 3.089,3 V 3.919 L 1.544,3.855 C 0.316,3.811 -0.569,3.62 -1.112,3.283 -1.655,2.945 -1.926,2.421 -1.926,1.709 -1.926,1.151 -1.757,0.728 -1.419,0.437 -1.081,0.146 -0.608,0 0,0 M 3.489,-1.087 3.182,0.362 H 3.107 C 2.599,-0.275 2.092,-0.708 1.586,-0.934 1.081,-1.159 0.45,-1.272 -0.307,-1.272 c -1.011,0 -1.804,0.259 -2.377,0.78 -0.574,0.519 -0.861,1.26 -0.861,2.22 0,2.055 1.647,3.132 4.941,3.232 l 1.73,0.056 v 0.63 c 0,0.799 -0.172,1.389 -0.516,1.77 -0.344,0.381 -0.895,0.571 -1.652,0.571 -0.85,0 -1.811,-0.259 -2.884,-0.78 L -2.4,8.387 c 0.502,0.272 1.052,0.486 1.651,0.64 C -0.15,9.183 0.45,9.26 1.051,9.26 2.267,9.26 3.168,8.99 3.754,8.452 4.34,7.913 4.633,7.049 4.633,5.86 v -6.947 z"
       style="fill:#ffffff;fill-opacity:1;fill-rule:nonzero;stroke:none"
       transform="matrix(1.3333333,0,0,-1.3333333,139.946,140.5404)"
       clip-path="url(#clipPath73)" />
    <path
       id="path74"
       d="M 0,0 V 6.622 C 0,7.434 -0.174,8.042 -0.521,8.447 -0.869,8.853 -1.408,9.056 -2.14,9.056 -3.102,9.056 -3.811,8.78 -4.27,8.23 -4.73,7.678 -4.959,6.83 -4.959,5.685 V 0 h -1.544 v 6.622 c 0,0.812 -0.174,1.42 -0.521,1.825 -0.348,0.406 -0.891,0.609 -1.629,0.609 -0.968,0 -1.676,-0.289 -2.126,-0.868 -0.45,-0.58 -0.674,-1.529 -0.674,-2.847 V 0 h -1.544 v 10.18 h 1.255 l 0.251,-1.394 h 0.075 c 0.292,0.495 0.702,0.883 1.233,1.161 0.53,0.279 1.124,0.418 1.782,0.418 1.593,0 2.635,-0.576 3.126,-1.727 h 0.074 c 0.304,0.532 0.745,0.953 1.321,1.263 0.577,0.309 1.235,0.464 1.973,0.464 1.153,0 2.017,-0.296 2.591,-0.886 0.573,-0.592 0.86,-1.538 0.86,-2.838 L 1.544,0 Z"
       style="fill:#ffffff;fill-opacity:1;fill-rule:nonzero;stroke:none"
       transform="matrix(1.3333333,0,0,-1.3333333,167.0872,141.9896)"
       clip-path="url(#clipPath75)" />
    <path
       id="path76"
       d="m 0,0 c -1.042,0 -1.796,-0.288 -2.261,-0.863 -0.465,-0.576 -0.704,-1.494 -0.716,-2.75 v -0.344 c 0,-1.43 0.239,-2.453 0.716,-3.069 0.478,-0.617 1.244,-0.924 2.298,-0.924 0.881,0 1.571,0.355 2.07,1.068 0.499,0.712 0.749,1.693 0.749,2.943 0,1.27 -0.25,2.244 -0.749,2.922 C 1.608,-0.339 0.906,0 0,0 m 0.223,-9.241 c -0.664,0 -1.27,0.122 -1.819,0.366 -0.549,0.245 -1.009,0.621 -1.381,1.129 h -0.112 c 0.074,-0.595 0.112,-1.158 0.112,-1.691 v -4.188 H -4.521 V 1.124 h 1.255 l 0.214,-1.394 h 0.075 c 0.396,0.558 0.859,0.96 1.386,1.208 0.527,0.248 1.132,0.371 1.814,0.371 1.353,0 2.396,-0.46 3.131,-1.383 0.735,-0.923 1.102,-2.217 1.102,-3.883 0,-1.672 -0.373,-2.971 -1.121,-3.896 C 2.588,-8.778 1.551,-9.241 0.223,-9.241"
       style="fill:#ffffff;fill-opacity:1;fill-rule:nonzero;stroke:none"
       transform="matrix(1.3333333,0,0,-1.3333333,178.808,129.91533)"
       clip-path="url(#clipPath77)" />
    <path
       id="path78"
       d="m 0,0 v -6.604 c 0,-0.83 0.189,-1.449 0.567,-1.858 0.379,-0.408 0.971,-0.612 1.778,-0.612 1.067,0 1.846,0.291 2.34,0.873 0.493,0.582 0.739,1.532 0.739,2.851 V 0 H 6.969 V -10.18 H 5.694 L 5.471,-8.814 H 5.387 C 5.071,-9.315 4.632,-9.7 4.07,-9.966 c -0.561,-0.266 -1.201,-0.399 -1.921,-0.399 -1.24,0 -2.169,0.294 -2.786,0.882 -0.617,0.588 -0.926,1.529 -0.926,2.824 V 0 Z"
       style="fill:#ffffff;fill-opacity:1;fill-rule:nonzero;stroke:none"
       transform="matrix(1.3333333,0,0,-1.3333333,189.6732,128.41667)"
       clip-path="url(#clipPath79)" />
    <path
       id="path80"
       d="m 0,0 c 0,-0.947 -0.354,-1.679 -1.061,-2.192 -0.707,-0.514 -1.699,-0.771 -2.977,-0.771 -1.352,0 -2.406,0.214 -3.163,0.641 v 1.43 c 0.49,-0.248 1.015,-0.443 1.577,-0.585 0.561,-0.142 1.103,-0.214 1.624,-0.214 0.806,0 1.426,0.129 1.86,0.385 0.434,0.257 0.651,0.65 0.651,1.176 0,0.396 -0.172,0.734 -0.516,1.017 -0.344,0.281 -1.015,0.614 -2.014,0.998 -0.949,0.353 -1.624,0.661 -2.024,0.924 -0.4,0.263 -0.698,0.562 -0.893,0.897 -0.195,0.334 -0.293,0.733 -0.293,1.197 0,0.83 0.338,1.486 1.014,1.965 0.676,0.48 1.603,0.72 2.782,0.72 1.098,0 2.171,-0.223 3.219,-0.669 L -0.763,5.665 c -1.023,0.421 -1.951,0.632 -2.782,0.632 -0.732,0 -1.284,-0.114 -1.656,-0.344 -0.372,-0.229 -0.558,-0.545 -0.558,-0.947 0,-0.273 0.07,-0.505 0.209,-0.697 0.14,-0.192 0.364,-0.375 0.675,-0.547 0.31,-0.174 0.905,-0.425 1.786,-0.753 1.21,-0.44 2.027,-0.882 2.452,-1.328 C -0.212,1.235 0,0.675 0,0"
       style="fill:#ffffff;fill-opacity:1;fill-rule:nonzero;stroke:none"
       transform="matrix(1.3333333,0,0,-1.3333333,211.49213,138.2864)"
       clip-path="url(#clipPath81)" />
    <path
       id="path82"
       d="m 0,0 c 0,-1.195 -0.434,-2.127 -1.303,-2.796 -0.868,-0.669 -2.047,-1.003 -3.535,-1.003 -1.613,0 -2.853,0.207 -3.722,0.622 v 1.524 c 0.559,-0.236 1.167,-0.421 1.824,-0.558 0.657,-0.136 1.309,-0.204 1.954,-0.204 1.054,0 1.848,0.199 2.382,0.599 0.533,0.399 0.8,0.955 0.8,1.668 0,0.469 -0.095,0.855 -0.284,1.156 -0.189,0.3 -0.506,0.577 -0.949,0.831 -0.444,0.254 -1.118,0.542 -2.024,0.863 -1.265,0.452 -2.169,0.988 -2.712,1.608 -0.543,0.619 -0.814,1.426 -0.814,2.423 0,1.046 0.394,1.879 1.182,2.498 0.787,0.62 1.829,0.93 3.126,0.93 1.352,0 2.596,-0.248 3.731,-0.743 L -0.837,8.043 C -1.96,8.514 -3.052,8.749 -4.112,8.749 -4.95,8.749 -5.604,8.569 -6.076,8.21 -6.547,7.851 -6.783,7.353 -6.783,6.715 -6.783,6.244 -6.696,5.858 -6.522,5.559 -6.349,5.258 -6.056,4.982 -5.643,4.731 -5.23,4.481 -4.6,4.204 -3.749,3.9 -2.323,3.393 -1.341,2.848 -0.805,2.266 -0.268,1.684 0,0.929 0,0"
       style="fill:#ffffff;fill-opacity:1;fill-rule:nonzero;stroke:none"
       transform="matrix(1.3333333,0,0,-1.3333333,230.76627,137.17187)"
       clip-path="url(#clipPath83)" />
    <path
       id="path84"
       d="M 0,0 C 0.962,0 1.716,0.263 2.266,0.789 2.814,1.316 3.089,2.053 3.089,3 V 3.919 L 1.544,3.855 C 0.316,3.811 -0.569,3.62 -1.112,3.283 -1.655,2.945 -1.926,2.421 -1.926,1.709 -1.926,1.151 -1.757,0.728 -1.419,0.437 -1.081,0.146 -0.608,0 0,0 m 2.289,10.458 c -0.267,0 -0.528,0.057 -0.782,0.172 -0.254,0.114 -0.504,0.241 -0.749,0.381 -0.245,0.138 -0.481,0.265 -0.707,0.381 -0.226,0.114 -0.445,0.172 -0.656,0.172 -0.31,0 -0.544,-0.093 -0.702,-0.28 -0.158,-0.185 -0.281,-0.467 -0.368,-0.845 h -0.911 c 0.08,0.75 0.298,1.336 0.655,1.76 0.357,0.424 0.818,0.637 1.382,0.637 0.285,0 0.561,-0.058 0.828,-0.172 C 0.546,12.549 0.8,12.422 1.042,12.283 1.284,12.144 1.517,12.017 1.74,11.902 1.963,11.787 2.174,11.73 2.373,11.73 c 0.303,0 0.53,0.091 0.679,0.274 0.149,0.183 0.269,0.466 0.363,0.851 h 0.92 C 4.255,12.105 4.04,11.519 3.689,11.094 3.338,10.67 2.872,10.458 2.289,10.458 M 3.489,-1.087 3.182,0.362 H 3.107 C 2.599,-0.275 2.092,-0.708 1.587,-0.934 1.081,-1.159 0.45,-1.272 -0.307,-1.272 c -1.011,0 -1.804,0.259 -2.377,0.78 -0.574,0.519 -0.861,1.26 -0.861,2.22 0,2.055 1.647,3.132 4.941,3.232 l 1.73,0.056 v 0.63 c 0,0.799 -0.172,1.389 -0.516,1.77 -0.344,0.381 -0.895,0.571 -1.652,0.571 -0.85,0 -1.811,-0.259 -2.884,-0.78 L -2.4,8.387 c 0.502,0.272 1.052,0.486 1.651,0.64 C -0.15,9.183 0.45,9.26 1.051,9.26 2.267,9.26 3.168,8.99 3.754,8.452 4.34,7.913 4.633,7.049 4.633,5.86 v -6.947 z"
       style="fill:#ffffff;fill-opacity:1;fill-rule:nonzero;stroke:none"
       transform="matrix(1.3333333,0,0,-1.3333333,237.26427,140.5404)"
       clip-path="url(#clipPath85)" />
    <path
       id="path86"
       d="m 0,0 c 0,-1.3 0.26,-2.291 0.781,-2.972 0.521,-0.681 1.287,-1.021 2.298,-1.021 1.011,0 1.779,0.339 2.303,1.016 C 5.906,-2.298 6.168,-1.306 6.168,0 6.168,1.295 5.906,2.277 5.382,2.949 4.858,3.621 4.084,3.957 3.061,3.957 2.05,3.957 1.287,3.626 0.772,2.963 0.257,2.301 0,1.314 0,0 m 7.768,0 c 0,-1.659 -0.418,-2.955 -1.255,-3.887 -0.838,-0.931 -1.995,-1.397 -3.471,-1.397 -0.912,0 -1.721,0.214 -2.428,0.641 -0.707,0.427 -1.253,1.039 -1.638,1.838 -0.384,0.799 -0.577,1.734 -0.577,2.805 0,1.66 0.416,2.952 1.247,3.878 0.831,0.926 1.985,1.389 3.461,1.389 1.427,0 2.56,-0.474 3.401,-1.421 C 7.348,2.898 7.768,1.616 7.768,0"
       style="fill:#ffffff;fill-opacity:1;fill-rule:nonzero;stroke:none"
       transform="matrix(1.3333333,0,0,-1.3333333,248.45253,135.19147)"
       clip-path="url(#clipPath87)" />
    <path
       id="path88"
       d="M 0,0 C -0.583,0 -1.042,0.084 -1.377,0.251 V 1.598 C -0.936,1.474 -0.478,1.412 0,1.412 c 0.614,0 1.081,0.186 1.4,0.558 0.32,0.371 0.479,0.907 0.479,1.606 V 17.155 H 3.461 V 3.706 C 3.461,2.53 3.163,1.618 2.568,0.971 1.973,0.324 1.117,0 0,0"
       style="fill:#ffffff;fill-opacity:1;fill-rule:nonzero;stroke:none"
       transform="matrix(1.3333333,0,0,-1.3333333,265.46813,146.75787)"
       clip-path="url(#clipPath89)" />
    <path
       id="path90"
       d="m 0,0 c 0,-1.3 0.26,-2.291 0.781,-2.972 0.521,-0.681 1.287,-1.021 2.299,-1.021 1.01,0 1.778,0.339 2.302,1.016 C 5.906,-2.298 6.169,-1.306 6.169,0 6.169,1.295 5.906,2.277 5.382,2.949 4.858,3.621 4.085,3.957 3.061,3.957 2.05,3.957 1.287,3.626 0.772,2.963 0.257,2.301 0,1.314 0,0 m 7.769,0 c 0,-1.659 -0.419,-2.955 -1.256,-3.887 -0.838,-0.931 -1.994,-1.397 -3.471,-1.397 -0.912,0 -1.721,0.214 -2.428,0.641 -0.707,0.427 -1.253,1.039 -1.637,1.838 C -1.408,-2.006 -1.6,-1.071 -1.6,0 c 0,1.66 0.415,2.952 1.246,3.878 0.832,0.926 1.985,1.389 3.461,1.389 1.427,0 2.56,-0.474 3.401,-1.421 C 7.348,2.898 7.769,1.616 7.769,0"
       style="fill:#ffffff;fill-opacity:1;fill-rule:nonzero;stroke:none"
       transform="matrix(1.3333333,0,0,-1.3333333,275.35347,135.19147)"
       clip-path="url(#clipPath91)" />
    <path
       id="path92"
       d="m 0,0 c 0,-0.947 -0.354,-1.679 -1.061,-2.192 -0.707,-0.514 -1.699,-0.771 -2.977,-0.771 -1.352,0 -2.406,0.214 -3.163,0.641 v 1.43 c 0.49,-0.248 1.015,-0.443 1.577,-0.585 0.561,-0.142 1.102,-0.214 1.623,-0.214 0.807,0 1.427,0.129 1.861,0.385 0.434,0.257 0.651,0.65 0.651,1.176 0,0.396 -0.172,0.734 -0.516,1.017 -0.344,0.281 -1.016,0.614 -2.014,0.998 -0.949,0.353 -1.624,0.661 -2.024,0.924 -0.4,0.263 -0.698,0.562 -0.893,0.897 -0.195,0.334 -0.293,0.733 -0.293,1.197 0,0.83 0.338,1.486 1.014,1.965 0.676,0.48 1.603,0.72 2.782,0.72 1.098,0 2.171,-0.223 3.219,-0.669 L -0.763,5.665 c -1.023,0.421 -1.951,0.632 -2.782,0.632 -0.732,0 -1.284,-0.114 -1.656,-0.344 -0.372,-0.229 -0.558,-0.545 -0.558,-0.947 0,-0.273 0.07,-0.505 0.209,-0.697 0.14,-0.192 0.364,-0.375 0.675,-0.547 0.31,-0.174 0.905,-0.425 1.786,-0.753 1.21,-0.44 2.027,-0.882 2.452,-1.328 C -0.212,1.235 0,0.675 0,0"
       style="fill:#ffffff;fill-opacity:1;fill-rule:nonzero;stroke:none"
       transform="matrix(1.3333333,0,0,-1.3333333,297.4824,138.2864)"
       clip-path="url(#clipPath93)" />
    <path
       id="path94"
       d="M 0,0 C 0.297,0.384 0.619,0.848 0.963,1.393 1.307,1.937 1.578,2.411 1.777,2.814 H 3.656 V 2.619 C 3.383,2.216 2.977,1.721 2.438,1.133 1.898,0.545 1.43,0.09 1.033,-0.232 H 0 Z m 1.144,-2.685 c -0.818,0 -1.472,-0.266 -1.958,-0.798 -0.487,-0.533 -0.774,-1.27 -0.861,-2.21 h 5.331 c 0,0.971 -0.217,1.716 -0.651,2.233 -0.434,0.517 -1.054,0.775 -1.861,0.775 m 0.419,-9.259 c -1.507,0 -2.697,0.458 -3.568,1.374 -0.871,0.917 -1.308,2.189 -1.308,3.817 0,1.641 0.405,2.944 1.215,3.91 0.81,0.966 1.896,1.449 3.261,1.449 1.278,0 2.289,-0.42 3.033,-1.258 0.745,-0.839 1.116,-1.946 1.116,-3.321 v -0.974 h -7.024 c 0.031,-1.196 0.333,-2.103 0.907,-2.722 0.574,-0.619 1.382,-0.929 2.424,-0.929 1.098,0 2.183,0.229 3.256,0.688 v -1.375 c -0.546,-0.236 -1.062,-0.404 -1.549,-0.506 -0.487,-0.103 -1.074,-0.153 -1.763,-0.153"
       style="fill:#ffffff;fill-opacity:1;fill-rule:nonzero;stroke:none"
       transform="matrix(1.3333333,0,0,-1.3333333,303.88147,126.3112)"
       clip-path="url(#clipPath95)" />
    <path
       id="path96"
       d="m 0,0 c 1.055,0 1.819,0.286 2.293,0.859 0.475,0.573 0.712,1.496 0.712,2.773 v 0.324 c 0,1.443 -0.24,2.473 -0.721,3.089 -0.481,0.616 -1.248,0.924 -2.303,0.924 -0.905,0 -1.598,-0.352 -2.079,-1.054 -0.481,-0.703 -0.721,-1.695 -0.721,-2.977 0,-1.3 0.239,-2.282 0.716,-2.945 C -1.625,0.331 -0.924,0 0,0 M 3.089,0.26 H 3.005 c -0.713,-1.034 -1.78,-1.551 -3.2,-1.551 -1.334,0 -2.371,0.455 -3.113,1.365 -0.741,0.91 -1.112,2.204 -1.112,3.882 0,1.679 0.373,2.981 1.117,3.91 0.744,0.93 1.78,1.394 3.108,1.394 1.383,0 2.443,-0.502 3.182,-1.505 h 0.12 L 3.042,8.489 3.005,9.204 v 4.143 H 4.55 V -1.105 H 3.293 Z"
       style="fill:#ffffff;fill-opacity:1;fill-rule:nonzero;stroke:none"
       transform="matrix(1.3333333,0,0,-1.3333333,324.9916,140.5156)"
       clip-path="url(#clipPath97)" />
    <path
       id="path98"
       d="m 0,0 c 0,-1.3 0.26,-2.291 0.781,-2.972 0.521,-0.681 1.287,-1.021 2.298,-1.021 1.011,0 1.779,0.339 2.303,1.016 C 5.906,-2.298 6.168,-1.306 6.168,0 6.168,1.295 5.906,2.277 5.382,2.949 4.858,3.621 4.084,3.957 3.061,3.957 2.05,3.957 1.287,3.626 0.772,2.963 0.257,2.301 0,1.314 0,0 m 7.768,0 c 0,-1.659 -0.418,-2.955 -1.255,-3.887 -0.838,-0.931 -1.995,-1.397 -3.471,-1.397 -0.912,0 -1.721,0.214 -2.428,0.641 -0.707,0.427 -1.253,1.039 -1.638,1.838 -0.384,0.799 -0.577,1.734 -0.577,2.805 0,1.66 0.416,2.952 1.247,3.878 0.831,0.926 1.985,1.389 3.461,1.389 1.427,0 2.56,-0.474 3.401,-1.421 C 7.348,2.898 7.768,1.616 7.768,0"
       style="fill:#ffffff;fill-opacity:1;fill-rule:nonzero;stroke:none"
       transform="matrix(1.3333333,0,0,-1.3333333,336.19147,135.19147)"
       clip-path="url(#clipPath99)" />
    <path
       id="path100"
       d="m 0,0 c 0,-0.947 -0.354,-1.679 -1.061,-2.192 -0.707,-0.514 -1.699,-0.771 -2.977,-0.771 -1.352,0 -2.406,0.214 -3.163,0.641 v 1.43 c 0.49,-0.248 1.015,-0.443 1.577,-0.585 0.561,-0.142 1.103,-0.214 1.623,-0.214 0.807,0 1.427,0.129 1.861,0.385 0.434,0.257 0.651,0.65 0.651,1.176 0,0.396 -0.172,0.734 -0.516,1.017 -0.344,0.281 -1.016,0.614 -2.014,0.998 -0.949,0.353 -1.624,0.661 -2.024,0.924 -0.4,0.263 -0.698,0.562 -0.893,0.897 -0.195,0.334 -0.293,0.733 -0.293,1.197 0,0.83 0.338,1.486 1.014,1.965 0.676,0.48 1.603,0.72 2.782,0.72 1.098,0 2.171,-0.223 3.219,-0.669 L -0.763,5.665 c -1.023,0.421 -1.951,0.632 -2.782,0.632 -0.732,0 -1.284,-0.114 -1.656,-0.344 -0.372,-0.229 -0.558,-0.545 -0.558,-0.947 0,-0.273 0.07,-0.505 0.209,-0.697 0.14,-0.192 0.364,-0.375 0.675,-0.547 0.31,-0.174 0.905,-0.425 1.786,-0.753 1.21,-0.44 2.027,-0.882 2.452,-1.328 C -0.212,1.235 0,0.675 0,0"
       style="fill:#ffffff;fill-opacity:1;fill-rule:nonzero;stroke:none"
       transform="matrix(1.3333333,0,0,-1.3333333,358.32027,138.2864)"
       clip-path="url(#clipPath101)" />
    <path
       id="path102"
       d="m 0,0 c -1.495,0 -2.675,-0.497 -3.54,-1.491 -0.865,-0.993 -1.298,-2.355 -1.298,-4.082 0,-1.777 0.417,-3.15 1.252,-4.119 0.834,-0.969 2.023,-1.454 3.568,-1.454 0.949,0 2.031,0.17 3.247,0.511 v -1.383 c -0.943,-0.354 -2.106,-0.53 -3.489,-0.53 -2.004,0 -3.55,0.607 -4.638,1.82 -1.089,1.214 -1.633,2.938 -1.633,5.173 0,1.4 0.262,2.626 0.786,3.679 0.524,1.053 1.281,1.863 2.27,2.434 0.989,0.569 2.154,0.854 3.494,0.854 1.426,0 2.673,-0.261 3.74,-0.78 L 3.089,-0.725 C 2.059,-0.241 1.03,0 0,0"
       style="fill:#ffffff;fill-opacity:1;fill-rule:nonzero;stroke:none"
       transform="matrix(1.3333333,0,0,-1.3333333,375.1256,125.50653)"
       clip-path="url(#clipPath103)" />
    <path
       id="path104"
       d="M 0,0 C 0.961,0 1.716,0.263 2.266,0.789 2.814,1.316 3.089,2.053 3.089,3 V 3.919 L 1.544,3.855 C 0.316,3.811 -0.569,3.62 -1.112,3.283 -1.655,2.945 -1.926,2.421 -1.926,1.709 -1.926,1.151 -1.757,0.728 -1.419,0.437 -1.081,0.146 -0.608,0 0,0 M 3.489,-1.087 3.182,0.362 H 3.107 C 2.599,-0.275 2.092,-0.708 1.586,-0.934 1.081,-1.159 0.45,-1.272 -0.307,-1.272 c -1.011,0 -1.804,0.259 -2.377,0.78 -0.574,0.519 -0.861,1.26 -0.861,2.22 0,2.055 1.647,3.132 4.941,3.232 l 1.73,0.056 v 0.63 c 0,0.799 -0.172,1.389 -0.516,1.77 -0.344,0.381 -0.895,0.571 -1.652,0.571 -0.85,0 -1.811,-0.259 -2.884,-0.78 L -2.4,8.387 c 0.502,0.272 1.052,0.486 1.651,0.64 C -0.15,9.183 0.45,9.26 1.051,9.26 2.267,9.26 3.168,8.99 3.754,8.452 4.34,7.913 4.633,7.049 4.633,5.86 v -6.947 z"
       style="fill:#ffffff;fill-opacity:1;fill-rule:nonzero;stroke:none"
       transform="matrix(1.3333333,0,0,-1.3333333,386.1764,140.5404)"
       clip-path="url(#clipPath105)" />
    <path
       id="path106"
       d="M 0,0 V 6.622 C 0,7.434 -0.174,8.042 -0.521,8.447 -0.869,8.853 -1.408,9.056 -2.14,9.056 -3.102,9.056 -3.811,8.78 -4.271,8.23 -4.73,7.678 -4.959,6.83 -4.959,5.685 V 0 h -1.544 v 6.622 c 0,0.812 -0.174,1.42 -0.521,1.825 -0.348,0.406 -0.891,0.609 -1.629,0.609 -0.968,0 -1.676,-0.289 -2.126,-0.868 -0.45,-0.58 -0.674,-1.529 -0.674,-2.847 V 0 h -1.545 v 10.18 h 1.256 l 0.251,-1.394 h 0.075 c 0.291,0.495 0.702,0.883 1.233,1.161 0.53,0.279 1.124,0.418 1.782,0.418 1.593,0 2.635,-0.576 3.126,-1.727 h 0.074 c 0.304,0.532 0.744,0.953 1.321,1.263 0.577,0.309 1.234,0.464 1.973,0.464 1.153,0 2.017,-0.296 2.591,-0.886 0.573,-0.592 0.86,-1.538 0.86,-2.838 L 1.544,0 Z"
       style="fill:#ffffff;fill-opacity:1;fill-rule:nonzero;stroke:none"
       transform="matrix(1.3333333,0,0,-1.3333333,413.31707,141.9896)"
       clip-path="url(#clipPath107)" />
    <path
       id="path108"
       d="m 0,0 c -1.042,0 -1.795,-0.288 -2.261,-0.863 -0.465,-0.576 -0.704,-1.494 -0.716,-2.75 v -0.344 c 0,-1.43 0.239,-2.453 0.716,-3.069 0.478,-0.617 1.244,-0.924 2.298,-0.924 0.881,0 1.571,0.355 2.07,1.068 0.5,0.712 0.75,1.693 0.75,2.943 0,1.27 -0.25,2.244 -0.75,2.922 C 1.608,-0.339 0.906,0 0,0 m 0.223,-9.241 c -0.663,0 -1.27,0.122 -1.819,0.366 -0.549,0.245 -1.009,0.621 -1.381,1.129 h -0.112 c 0.074,-0.595 0.112,-1.158 0.112,-1.691 v -4.188 H -4.521 V 1.124 h 1.255 l 0.214,-1.394 h 0.075 c 0.396,0.558 0.859,0.96 1.386,1.208 0.527,0.248 1.132,0.371 1.814,0.371 1.353,0 2.396,-0.46 3.131,-1.383 0.735,-0.923 1.103,-2.217 1.103,-3.883 0,-1.672 -0.374,-2.971 -1.121,-3.896 C 2.588,-8.778 1.551,-9.241 0.223,-9.241"
       style="fill:#ffffff;fill-opacity:1;fill-rule:nonzero;stroke:none"
       transform="matrix(1.3333333,0,0,-1.3333333,425.0384,129.91533)"
       clip-path="url(#clipPath109)" />
    <path
       id="path110"
       d="m 0,0 c 0,-1.3 0.26,-2.291 0.781,-2.972 0.521,-0.681 1.287,-1.021 2.299,-1.021 1.01,0 1.778,0.339 2.302,1.016 C 5.906,-2.298 6.168,-1.306 6.168,0 6.168,1.295 5.906,2.277 5.382,2.949 4.858,3.621 4.085,3.957 3.061,3.957 2.05,3.957 1.287,3.626 0.772,2.963 0.257,2.301 0,1.314 0,0 m 7.768,0 c 0,-1.659 -0.418,-2.955 -1.255,-3.887 -0.838,-0.931 -1.995,-1.397 -3.471,-1.397 -0.912,0 -1.721,0.214 -2.428,0.641 -0.707,0.427 -1.253,1.039 -1.637,1.838 -0.385,0.799 -0.578,1.734 -0.578,2.805 0,1.66 0.416,2.952 1.248,3.878 0.831,0.926 1.984,1.389 3.46,1.389 1.427,0 2.561,-0.474 3.401,-1.421 C 7.348,2.898 7.768,1.616 7.768,0"
       style="fill:#ffffff;fill-opacity:1;fill-rule:nonzero;stroke:none"
       transform="matrix(1.3333333,0,0,-1.3333333,435.34507,135.19147)"
       clip-path="url(#clipPath111)" />
    <path
       id="path112"
       d="m 0,0 c 0,-0.947 -0.353,-1.679 -1.061,-2.192 -0.707,-0.514 -1.699,-0.771 -2.977,-0.771 -1.352,0 -2.406,0.214 -3.163,0.641 v 1.43 c 0.49,-0.248 1.015,-0.443 1.577,-0.585 0.561,-0.142 1.103,-0.214 1.624,-0.214 0.806,0 1.426,0.129 1.86,0.385 0.434,0.257 0.651,0.65 0.651,1.176 0,0.396 -0.172,0.734 -0.516,1.017 -0.344,0.281 -1.016,0.614 -2.014,0.998 -0.949,0.353 -1.624,0.661 -2.024,0.924 -0.4,0.263 -0.698,0.562 -0.893,0.897 -0.195,0.334 -0.293,0.733 -0.293,1.197 0,0.83 0.338,1.486 1.014,1.965 0.676,0.48 1.603,0.72 2.782,0.72 1.097,0 2.171,-0.223 3.219,-0.669 L -0.763,5.665 c -1.023,0.421 -1.951,0.632 -2.782,0.632 -0.732,0 -1.284,-0.114 -1.656,-0.344 -0.372,-0.229 -0.558,-0.545 -0.558,-0.947 0,-0.273 0.069,-0.505 0.209,-0.697 0.14,-0.192 0.364,-0.375 0.675,-0.547 0.31,-0.174 0.905,-0.425 1.786,-0.753 1.21,-0.44 2.027,-0.882 2.452,-1.328 C -0.212,1.235 0,0.675 0,0"
       style="fill:#ffffff;fill-opacity:1;fill-rule:nonzero;stroke:none"
       transform="matrix(1.3333333,0,0,-1.3333333,457.474,138.2864)"
       clip-path="url(#clipPath113)" />
  </g>
</svg>
